<mxfile host="65bd71144e">
    <diagram id="tB6H8ZxRPIN0vvzKyAPA" name="Page-1">
        <mxGraphModel dx="1186" dy="1144" grid="1" gridSize="10" guides="1" tooltips="1" connect="1" arrows="1" fold="1" page="1" pageScale="1" pageWidth="850" pageHeight="1100" math="0" shadow="0">
            <root>
                <mxCell id="0"/>
                <mxCell id="1" parent="0"/>
                <mxCell id="2" value="&lt;font style=&quot;font-size: 21px;&quot;&gt;SCRIPT&lt;/font&gt;" style="rounded=1;whiteSpace=wrap;html=1;fillColor=#647687;fontColor=#ffffff;strokeColor=#314354;" parent="1" vertex="1">
                    <mxGeometry x="253" y="270" width="345" height="60" as="geometry"/>
                </mxCell>
                <mxCell id="3" value="Common" style="rounded=1;whiteSpace=wrap;html=1;fontSize=21;fillColor=#1ba1e2;fontColor=#ffffff;strokeColor=#006EAF;" parent="1" vertex="1">
                    <mxGeometry x="253" y="340" width="120" height="90" as="geometry"/>
                </mxCell>
                <mxCell id="4" value="App Keywords" style="rounded=1;whiteSpace=wrap;html=1;fontSize=21;fillColor=#a20025;fontColor=#ffffff;strokeColor=#6F0000;" parent="1" vertex="1">
                    <mxGeometry x="388" y="340" width="210" height="40" as="geometry"/>
                </mxCell>
                <mxCell id="5" value="&lt;font style=&quot;font-size: 14px;&quot;&gt;&amp;nbsp;Page Obj 1&lt;/font&gt;" style="rounded=1;whiteSpace=wrap;html=1;fontSize=21;fillColor=#f0a30a;fontColor=#000000;strokeColor=#BD7000;" parent="1" vertex="1">
                    <mxGeometry x="388" y="390" width="100" height="40" as="geometry"/>
                </mxCell>
                <mxCell id="6" value="&lt;font style=&quot;font-size: 14px;&quot;&gt;&amp;nbsp;Page Obj 2&lt;br&gt;&lt;/font&gt;" style="rounded=1;whiteSpace=wrap;html=1;fontSize=21;fillColor=#e3c800;fontColor=#000000;strokeColor=#B09500;" parent="1" vertex="1">
                    <mxGeometry x="498" y="390" width="100" height="40" as="geometry"/>
                </mxCell>
                <mxCell id="7" value="SELENIUM LIBRARY" style="rounded=1;whiteSpace=wrap;html=1;fontSize=21;fillColor=#008a00;fontColor=#ffffff;strokeColor=#005700;" vertex="1" parent="1">
                    <mxGeometry x="253" y="440" width="347" height="40" as="geometry"/>
                </mxCell>
            </root>
        </mxGraphModel>
    </diagram>
</mxfile>